<svg width="180" height="180" viewBox="0 0 180 180" fill="none" xmlns="http://www.w3.org/2000/svg">
  <defs>
    <linearGradient id="bg" x1="22" y1="18" x2="154" y2="166" gradientUnits="userSpaceOnUse">
      <stop stop-color="#06B6D4"/>
      <stop offset="1" stop-color="#7C3AED"/>
    </linearGradient>
    <linearGradient id="lens" x1="56" y1="58" x2="104" y2="106" gradientUnits="userSpaceOnUse">
      <stop stop-color="#A5F3FC"/>
      <stop offset="1" stop-color="#C4B5FD"/>
    </linearGradient>
  </defs>
  <rect x="12" y="12" width="156" height="156" rx="34" fill="#070C14"/>
  <rect x="16" y="16" width="148" height="148" rx="30" fill="url(#bg)" opacity="0.35"/>
  <rect x="20" y="20" width="140" height="140" rx="28" fill="#090F1D"/>
  <path d="M90 54C96.0751 54 101 58.9249 101 65V116C101 122.075 96.0751 127 90 127C83.9249 127 79 122.075 79 116V65C79 58.9249 83.9249 54 90 54Z" fill="#93C5FD"/>
  <circle cx="70" cy="82" r="24" stroke="url(#lens)" stroke-width="8"/>
  <path d="M85.5 97.5L105 117" stroke="#60A5FA" stroke-width="10" stroke-linecap="round"/>
</svg>